<svg width="1440" height="1024" viewBox="0 0 1440 1024" fill="none" xmlns="http://www.w3.org/2000/svg">
<g clip-path="url(#clip0_307_23)">
<rect width="1440" height="1024" fill="#3E5684"/>
<path d="M295.188 6.10352e-05H-544.573V192.655H-221.058V1025H-28.4022V192.655H295.188V6.10352e-05Z" fill="#304878"/>
<path d="M1951.04 -3.05176e-05H1111.28V192.655H1434.8V1025H1627.45V192.655H1951.04V-3.05176e-05Z" fill="#304878"/>
<path d="M749.929 191.246H1049.63V0.296539H716.027C648.371 4.30247 584.128 20.1779 525.523 45.8455C340.286 126.928 211.651 305.192 211.651 512.165C211.651 795.399 452.674 1025 749.929 1025C787.688 1025 824.558 1021.29 860.092 1014.24V1025H1049.63V500.889H694.736V690.429H860.092V813.871C825.596 825.295 788.504 831.526 749.929 831.526C564.766 831.526 414.692 688.5 414.692 512.165C414.692 335.83 564.766 191.246 749.929 191.246Z" fill="#304878"/>
<path d="M672.818 459.264H579.498V480.673H615.449V573.169H636.858V480.673H672.818V459.264Z" fill="white"/>
<path d="M856.828 459.264H763.508V480.673H799.459V573.169H820.868V480.673H856.828V459.264Z" fill="white"/>
<path d="M723.352 480.517H756.657V459.297H719.585C712.066 459.742 704.927 461.506 698.414 464.359C677.829 473.369 663.535 493.179 663.535 516.179C663.535 547.654 690.319 573.169 723.352 573.169C727.548 573.169 731.645 572.757 735.594 571.974V573.169H756.657V514.926H717.219V535.989H735.594V549.707C731.761 550.977 727.639 551.669 723.352 551.669C702.775 551.669 686.098 535.775 686.098 516.179C686.098 496.584 702.775 480.517 723.352 480.517Z" fill="white"/>
<path d="M707.812 256.54V330.784C707.812 337.458 713.223 342.869 719.898 342.869H719.906C726.581 342.869 731.992 337.458 731.992 330.784V256.54C731.992 249.865 726.581 244.454 719.906 244.454H719.898C713.223 244.454 707.812 249.865 707.812 256.54Z" fill="#0F9B9C"/>
<path d="M894.357 321.415L841.859 373.913C837.139 378.633 837.139 386.285 841.859 391.004L841.865 391.01C846.584 395.73 854.236 395.73 858.956 391.01L911.454 338.512C916.174 333.792 916.174 326.14 911.454 321.42L911.449 321.415C906.729 316.695 899.077 316.695 894.357 321.415Z" fill="#0F9B9C"/>
<path d="M528.35 338.516L580.849 391.014C585.568 395.734 593.221 395.734 597.94 391.014L597.946 391.008C602.666 386.289 602.666 378.637 597.946 373.917L545.448 321.419C540.728 316.699 533.076 316.699 528.356 321.419L528.35 321.424C523.631 326.144 523.631 333.796 528.35 338.516Z" fill="#0F9B9C"/>
<path d="M731.992 766.875V692.631C731.992 685.956 726.581 680.545 719.907 680.545H719.898C713.224 680.545 707.813 685.956 707.813 692.631V766.875C707.813 773.549 713.224 778.96 719.898 778.96H719.907C726.581 778.96 731.992 773.549 731.992 766.875Z" fill="#0F9B9C"/>
<path d="M911.448 684.9L858.95 632.401C854.23 627.682 846.578 627.682 841.859 632.401L841.853 632.407C837.133 637.127 837.133 644.779 841.853 649.499L894.351 701.997C899.071 706.717 906.723 706.717 911.443 701.997L911.448 701.991C916.168 697.272 916.168 689.619 911.448 684.9Z" fill="#0F9B9C"/>
<path d="M545.442 701.99L597.941 649.492C602.66 644.772 602.66 637.12 597.941 632.4L597.935 632.394C593.215 627.675 585.563 627.675 580.843 632.394L528.345 684.893C523.625 689.612 523.625 697.265 528.345 701.984L528.351 701.99C533.07 706.71 540.722 706.71 545.442 701.99Z" fill="#0F9B9C"/>
</g>
<defs>
<clipPath id="clip0_307_23">
<rect width="1440" height="1024" fill="white"/>
</clipPath>
</defs>
</svg>
