<svg width="1440" height="1024" viewBox="0 0 1440 1024" fill="none" xmlns="http://www.w3.org/2000/svg">
<g clip-path="url(#clip0_307_45)">
<rect width="1440" height="1024" fill="#11ADAE"/>
<path d="M268.117 -33.977H-627.355V171.459H-282.377V1059.02H-76.9403V171.459H268.117V-33.977Z" fill="#0F9B9C"/>
<path d="M2033.82 -33.9771H1138.35V171.459H1483.33V1059.02H1688.76V171.459H2033.82V-33.9771Z" fill="#0F9B9C"/>
<path d="M753.027 169.956H1072.61V-33.6608H716.876C644.732 -29.3891 576.226 -12.4605 513.733 14.9099C316.207 101.372 179.039 291.462 179.039 512.166C179.039 814.19 436.052 1059.02 753.027 1059.02C793.291 1059.02 832.607 1055.07 870.498 1047.55V1059.02H1072.61V500.142H694.172V702.256H870.498V833.887C833.714 846.069 794.161 852.714 753.027 852.714C555.58 852.714 395.55 700.199 395.55 512.166C395.55 324.132 555.58 169.956 753.027 169.956Z" fill="#0F9B9C"/>
</g>
<defs>
<clipPath id="clip0_307_45">
<rect width="1440" height="1024" fill="white"/>
</clipPath>
</defs>
</svg>
