<svg width="1440" height="1024" viewBox="0 0 1440 1024" fill="none" xmlns="http://www.w3.org/2000/svg">
<g clip-path="url(#clip0_308_118)">
<rect width="1440" height="1024" fill="white"/>
<g opacity="0.1">
<path d="M268.117 -33.9771H-627.355V171.459H-282.377V1059.02H-76.9403V171.459H268.117V-33.9771Z" fill="black"/>
<path d="M2033.82 -33.9771H1138.35V171.459H1483.33V1059.02H1688.76V171.459H2033.82V-33.9771Z" fill="black"/>
<path d="M753.027 169.956H1072.61V-33.6608H716.876C644.732 -29.3891 576.226 -12.4604 513.733 14.91C316.207 101.372 179.039 291.462 179.039 512.166C179.039 814.19 436.052 1059.02 753.027 1059.02C793.291 1059.02 832.607 1055.07 870.498 1047.55V1059.02H1072.61V500.142H694.172V702.256H870.498V833.887C833.714 846.069 794.161 852.714 753.027 852.714C555.58 852.714 395.55 700.199 395.55 512.166C395.55 324.132 555.58 169.956 753.027 169.956Z" fill="black"/>
</g>
<rect width="34" height="1039" fill="#11ADAE"/>
<rect x="1406" width="34" height="1039" fill="#3E5684"/>
<path d="M390.125 978.21C386.94 978.21 384.63 975.725 384.63 972.312C384.63 968.9 386.888 966.415 390.02 966.415C392.488 966.415 394.5 967.99 394.92 970.3L393.38 970.86C393.1 969.11 391.683 967.85 390.02 967.85C387.815 967.85 386.205 969.722 386.205 972.312C386.205 974.885 387.85 976.74 390.125 976.74C391.928 976.74 393.275 975.48 393.485 973.59L395.06 974.08C394.64 976.53 392.715 978.21 390.125 978.21ZM397.616 978V966.625H399.436L405.456 975.865V966.625H406.927V978H405.246L399.086 968.83V978H397.616ZM410.044 978V966.625H414.839C416.887 966.625 418.374 968.13 418.374 970.195C418.374 972.277 416.852 973.8 414.769 973.8H411.514V978H410.044ZM411.514 972.4H414.769C415.959 972.4 416.834 971.49 416.834 970.212C416.834 968.935 415.959 968.025 414.769 968.025H411.514V972.4ZM424.219 978.21C421.856 978.21 420.159 976.495 420.159 974.08V971.98H421.664V974.01C421.664 975.602 422.731 976.74 424.236 976.74C425.741 976.74 426.809 975.602 426.809 974.01V966.625H428.279V974.01C428.279 976.46 426.581 978.21 424.219 978.21ZM431.96 972.54C431.313 972.54 430.84 972.05 430.84 971.385C430.84 970.72 431.313 970.23 431.96 970.23C432.608 970.23 433.08 970.72 433.08 971.385C433.08 972.05 432.608 972.54 431.96 972.54ZM431.96 978.14C431.313 978.14 430.84 977.65 430.84 976.985C430.84 976.32 431.313 975.83 431.96 975.83C432.608 975.83 433.08 976.32 433.08 976.985C433.08 977.65 432.608 978.14 431.96 978.14ZM441.826 978V970.405H439.516V969.04H440.286C441.231 969.04 441.896 968.34 441.896 967.36V966.625H443.296V978H441.826ZM449.492 978.21C447.585 978.21 446.115 976.967 445.922 975.13L447.602 974.71C447.637 975.987 448.425 976.775 449.562 976.775C451.26 976.775 452.502 975.112 452.607 972.435C452.17 973.397 451.085 974.08 449.737 974.08C447.672 974.08 445.992 972.487 445.992 970.265C445.992 968.042 447.637 966.415 449.842 966.415C452.432 966.415 454.007 968.55 454.007 972.12C454.007 975.847 452.187 978.21 449.492 978.21ZM449.842 972.68C451.207 972.68 452.187 971.647 452.187 970.23C452.187 968.812 451.207 967.78 449.842 967.78C448.477 967.78 447.497 968.812 447.497 970.23C447.497 971.647 448.477 972.68 449.842 972.68ZM456.837 978.14C456.189 978.14 455.717 977.65 455.717 976.985C455.717 976.32 456.189 975.83 456.837 975.83C457.484 975.83 457.957 976.32 457.957 976.985C457.957 977.65 457.484 978.14 456.837 978.14ZM461.284 978V970.405H458.974V969.04H459.744C460.689 969.04 461.354 968.34 461.354 967.36V966.625H462.754V978H461.284ZM466.851 978C466.851 973.94 468.391 970.44 471.121 968.06H464.961V966.625H472.521V968.13C469.931 970.51 468.461 973.94 468.461 977.93V978H466.851ZM474.1 977.65C474.1 975.2 475.308 973.94 477.53 972.96C478.79 972.4 480.12 971.7 480.12 970.09C480.12 968.777 479.245 967.85 478.02 967.85C476.55 967.85 475.57 969.18 475.85 970.79L474.275 971C473.995 968.2 475.553 966.415 477.95 966.415C480.05 966.415 481.556 967.85 481.556 969.95C481.556 971.875 480.208 973.065 478.598 973.835C477.058 974.57 475.85 975.375 475.71 976.495H481.591V978H474.1V977.65ZM484.707 978.14C484.06 978.14 483.587 977.65 483.587 976.985C483.587 976.32 484.06 975.83 484.707 975.83C485.355 975.83 485.827 976.32 485.827 976.985C485.827 977.65 485.355 978.14 484.707 978.14ZM489.369 978C489.369 973.94 490.909 970.44 493.639 968.06H487.479V966.625H495.039V968.13C492.449 970.51 490.979 973.94 490.979 977.93V978H489.369ZM498.438 978V970.405H496.128V969.04H496.898C497.843 969.04 498.508 968.34 498.508 967.36V966.625H499.908V978H498.438ZM506.7 978.21C504.407 978.21 502.745 976.845 502.745 974.885C502.745 973.502 503.585 972.365 504.88 971.91C503.795 971.49 503.165 970.597 503.165 969.46C503.165 967.692 504.688 966.415 506.7 966.415C508.73 966.415 510.235 967.692 510.235 969.46C510.235 970.597 509.605 971.49 508.52 971.91C509.815 972.365 510.655 973.502 510.655 974.885C510.655 976.845 508.993 978.21 506.7 978.21ZM506.7 976.775C508.135 976.775 509.15 975.917 509.15 974.71C509.15 973.485 508.135 972.61 506.7 972.61C505.265 972.61 504.25 973.485 504.25 974.71C504.25 975.917 505.265 976.775 506.7 976.775ZM506.7 971.28C507.925 971.28 508.8 970.562 508.8 969.53C508.8 968.497 507.925 967.78 506.7 967.78C505.475 967.78 504.6 968.497 504.6 969.53C504.6 970.562 505.475 971.28 506.7 971.28ZM513.628 981.57L512.228 981.36L515.203 966.03L516.568 966.24L513.628 981.57ZM523.045 978.21C520.21 978.21 518.215 975.76 518.215 972.312C518.215 968.865 520.21 966.415 523.045 966.415C525.88 966.415 527.875 968.865 527.875 972.312C527.875 975.76 525.88 978.21 523.045 978.21ZM523.045 976.74C524.97 976.74 526.335 974.902 526.335 972.295C526.335 969.687 524.97 967.85 523.045 967.85C521.12 967.85 519.755 969.687 519.755 972.295C519.755 974.902 521.12 976.74 523.045 976.74ZM534.978 978.21C532.142 978.21 530.147 975.76 530.147 972.312C530.147 968.865 532.142 966.415 534.978 966.415C537.813 966.415 539.808 968.865 539.808 972.312C539.808 975.76 537.813 978.21 534.978 978.21ZM534.978 976.74C536.903 976.74 538.268 974.902 538.268 972.295C538.268 969.687 536.903 967.85 534.978 967.85C533.053 967.85 531.687 969.687 531.687 972.295C531.687 974.902 533.053 976.74 534.978 976.74ZM546.91 978.21C544.075 978.21 542.08 975.76 542.08 972.312C542.08 968.865 544.075 966.415 546.91 966.415C549.745 966.415 551.74 968.865 551.74 972.312C551.74 975.76 549.745 978.21 546.91 978.21ZM546.91 976.74C548.835 976.74 550.2 974.902 550.2 972.295C550.2 969.687 548.835 967.85 546.91 967.85C544.985 967.85 543.62 969.687 543.62 972.295C543.62 974.902 544.985 976.74 546.91 976.74ZM555.762 978V970.405H553.452V969.04H554.222C555.167 969.04 555.832 968.34 555.832 967.36V966.625H557.232V978H555.762ZM559.649 974.167V972.802H565.739V974.167H559.649ZM571.242 978.21C569.335 978.21 567.865 976.967 567.672 975.13L569.352 974.71C569.387 975.987 570.175 976.775 571.312 976.775C573.01 976.775 574.252 975.112 574.357 972.435C573.92 973.397 572.835 974.08 571.487 974.08C569.422 974.08 567.742 972.487 567.742 970.265C567.742 968.042 569.387 966.415 571.592 966.415C574.182 966.415 575.758 968.55 575.758 972.12C575.758 975.847 573.937 978.21 571.242 978.21ZM571.592 972.68C572.957 972.68 573.937 971.647 573.937 970.23C573.937 968.812 572.957 967.78 571.592 967.78C570.227 967.78 569.247 968.812 569.247 970.23C569.247 971.647 570.227 972.68 571.592 972.68ZM582.022 978.21C579.66 978.21 577.962 976.565 577.962 974.255L579.502 973.8C579.38 975.515 580.482 976.74 582.057 976.74C583.458 976.74 584.473 975.76 584.473 974.395C584.473 972.785 583.003 971.7 581.322 972.26L580.342 971.21L583.843 968.025H578.522V966.625H585.663V968.06L582.652 970.737C584.613 970.93 586.013 972.417 586.013 974.43C586.013 976.635 584.35 978.21 582.022 978.21ZM593.432 981.5V966.1H594.867V981.5H593.432ZM602.702 978V966.625H610.472V968.025H604.172V971.49H609.632V972.89H604.172V976.565H610.612V978H602.702ZM613.164 978V969.25H614.354L614.512 970.755C614.984 969.705 616.139 969.04 617.434 969.04C619.412 969.04 620.829 970.58 620.829 972.68V978H619.429V972.82C619.429 971.42 618.484 970.44 617.154 970.44C615.684 970.44 614.564 971.612 614.564 973.24V978H613.164ZM627.264 978.21C624.884 978.21 623.169 976.285 623.169 973.59C623.169 970.93 624.867 969.04 627.229 969.04C628.577 969.04 629.714 969.67 630.449 970.685V966.1H631.849V976.25L631.884 978H630.694L630.519 976.495C629.784 977.562 628.647 978.21 627.264 978.21ZM627.562 976.81C629.259 976.81 630.484 975.48 630.484 973.625C630.484 971.752 629.259 970.405 627.562 970.405C625.864 970.405 624.639 971.752 624.639 973.625C624.639 975.48 625.864 976.81 627.562 976.81ZM635.661 972.54C635.013 972.54 634.541 972.05 634.541 971.385C634.541 970.72 635.013 970.23 635.661 970.23C636.308 970.23 636.781 970.72 636.781 971.385C636.781 972.05 636.308 972.54 635.661 972.54ZM635.661 978.14C635.013 978.14 634.541 977.65 634.541 976.985C634.541 976.32 635.013 975.83 635.661 975.83C636.308 975.83 636.781 976.32 636.781 976.985C636.781 977.65 636.308 978.14 635.661 978.14ZM643.146 978L647.627 966.625H649.167L653.647 978H651.967L650.794 974.92H645.981L644.826 978H643.146ZM646.507 973.52H650.252L648.362 968.55L646.507 973.52ZM657.156 978L653.796 969.25H655.441L657.979 976.39L660.516 969.25H662.091L658.801 978H657.156ZM663.836 978.14C663.188 978.14 662.716 977.65 662.716 976.985C662.716 976.32 663.188 975.83 663.836 975.83C664.483 975.83 664.956 976.32 664.956 976.985C664.956 977.65 664.483 978.14 663.836 978.14ZM671.325 978L675.805 966.625H677.345L681.825 978H680.145L678.972 974.92H674.16L673.005 978H671.325ZM674.685 973.52H678.43L676.54 968.55L674.685 973.52ZM683.897 978V966.1H685.297V978H683.897ZM688.412 978V969.25H689.532L689.76 970.842C690.092 969.775 691.16 969.04 692.437 969.04C693.697 969.04 694.817 969.775 695.307 970.877C695.71 969.775 696.812 969.04 698.142 969.04C700.015 969.04 701.362 970.562 701.362 972.68V978H699.962V972.75C699.962 971.42 699.122 970.475 697.932 970.475C696.585 970.475 695.622 971.577 695.622 973.1V978H694.24V972.75C694.24 971.42 693.382 970.475 692.192 970.475C690.81 970.475 689.812 971.595 689.812 973.17V978H688.412ZM704.275 969.25H705.675V978H704.275V969.25ZM704.975 968.13C704.345 968.13 703.89 967.657 703.89 967.01C703.89 966.362 704.345 965.89 704.975 965.89C705.605 965.89 706.06 966.362 706.06 967.01C706.06 967.657 705.605 968.13 704.975 968.13ZM708.79 978V969.25H709.98L710.12 970.65C710.558 969.372 711.905 968.76 713.41 969.18L713.34 970.825C711.94 970.125 710.19 970.702 710.19 972.68V978H708.79ZM717.786 978.21C716.054 978.21 714.916 977.212 714.916 975.69C714.916 974.482 715.879 973.502 717.366 973.24L720.061 972.75C720.359 972.697 720.586 972.47 720.586 972.19C720.586 971.087 719.834 970.3 718.766 970.3C717.646 970.3 716.806 971.105 716.736 972.33L715.196 972.155C715.371 970.335 716.824 969.04 718.696 969.04C720.621 969.04 721.986 970.387 721.986 972.26V976.25L722.021 978H720.901L720.656 976.67C720.114 977.615 719.064 978.21 717.786 978.21ZM716.456 975.62C716.456 976.355 717.086 976.845 718.066 976.845C719.536 976.845 720.586 975.83 720.586 974.43V973.817C720.429 973.852 720.236 973.905 720.026 973.94L717.716 974.36C716.946 974.5 716.456 974.99 716.456 975.62ZM724.896 978V969.25H726.086L726.244 970.755C726.716 969.705 727.871 969.04 729.166 969.04C731.144 969.04 732.561 970.58 732.561 972.68V978H731.161V972.82C731.161 971.42 730.216 970.44 728.886 970.44C727.416 970.44 726.296 971.612 726.296 973.24V978H724.896ZM739.14 978.07C737.67 978.49 735.745 978.07 735.745 976.11V970.615H734.345V969.25H734.87C735.447 969.25 735.815 968.83 735.815 968.165V967.01H737.145V969.25H739.105V970.615H737.145V975.76C737.145 976.74 738.16 977.02 739.07 976.67L739.14 978.07ZM745.226 978.21C742.689 978.21 740.886 976.302 740.886 973.625C740.886 970.947 742.636 969.04 745.086 969.04C747.764 969.04 749.409 971.262 749.199 974.202H742.444C742.689 975.742 743.774 976.81 745.261 976.81C746.451 976.81 747.396 976.11 747.606 975.13L749.111 975.62C748.691 977.16 747.116 978.21 745.226 978.21ZM742.461 972.837H747.711C747.501 971.367 746.451 970.405 745.121 970.405C743.739 970.405 742.706 971.402 742.461 972.837ZM756.492 978V966.625H761.463C763.405 966.625 764.788 967.832 764.788 969.53C764.788 970.72 764.053 971.735 762.863 972.085C764.263 972.435 765.173 973.52 765.173 974.92C765.173 976.722 763.808 978 761.883 978H756.492ZM757.962 976.565H761.603C762.793 976.565 763.668 975.795 763.668 974.727C763.668 973.66 762.793 972.89 761.603 972.89H757.962V976.565ZM757.962 971.49H761.323C762.46 971.49 763.283 970.755 763.283 969.757C763.283 968.76 762.46 968.025 761.323 968.025H757.962V971.49ZM770.034 978.21C768.302 978.21 767.164 977.212 767.164 975.69C767.164 974.482 768.127 973.502 769.614 973.24L772.309 972.75C772.607 972.697 772.834 972.47 772.834 972.19C772.834 971.087 772.082 970.3 771.014 970.3C769.894 970.3 769.054 971.105 768.984 972.33L767.444 972.155C767.619 970.335 769.072 969.04 770.944 969.04C772.869 969.04 774.234 970.387 774.234 972.26V976.25L774.269 978H773.149L772.904 976.67C772.362 977.615 771.312 978.21 770.034 978.21ZM768.704 975.62C768.704 976.355 769.334 976.845 770.314 976.845C771.784 976.845 772.834 975.83 772.834 974.43V973.817C772.677 973.852 772.484 973.905 772.274 973.94L769.964 974.36C769.194 974.5 768.704 974.99 768.704 975.62ZM777.144 978V969.25H778.334L778.474 970.65C778.912 969.372 780.259 968.76 781.764 969.18L781.694 970.825C780.294 970.125 778.544 970.702 778.544 972.68V978H777.144ZM783.967 978V969.25H785.157L785.297 970.65C785.734 969.372 787.082 968.76 788.587 969.18L788.517 970.825C787.117 970.125 785.367 970.702 785.367 972.68V978H783.967ZM794.467 978.21C791.912 978.21 790.092 976.302 790.092 973.625C790.092 970.947 791.912 969.04 794.467 969.04C797.022 969.04 798.842 970.947 798.842 973.625C798.842 976.302 797.022 978.21 794.467 978.21ZM794.467 976.81C796.165 976.81 797.372 975.48 797.372 973.625C797.372 971.752 796.165 970.405 794.467 970.405C792.77 970.405 791.562 971.752 791.562 973.625C791.562 975.48 792.77 976.81 794.467 976.81ZM804.485 978.21C802.385 978.21 800.845 977.02 800.705 975.41L802.245 974.99C802.315 976.04 803.295 976.88 804.555 976.88C805.535 976.88 806.305 976.355 806.305 975.62C806.305 973.66 801.125 974.43 801.125 971.49C801.125 970.055 802.385 969.04 804.205 969.04C806.025 969.04 807.373 970.037 807.565 971.42L806.095 971.805C806.06 970.947 805.29 970.335 804.24 970.335C803.295 970.335 802.63 970.825 802.63 971.49C802.63 973.38 807.845 972.61 807.845 975.62C807.845 977.125 806.445 978.21 804.485 978.21ZM814.077 978.21C811.521 978.21 809.701 976.302 809.701 973.625C809.701 970.947 811.521 969.04 814.077 969.04C816.632 969.04 818.452 970.947 818.452 973.625C818.452 976.302 816.632 978.21 814.077 978.21ZM814.077 976.81C815.774 976.81 816.982 975.48 816.982 973.625C816.982 971.752 815.774 970.405 814.077 970.405C812.379 970.405 811.171 971.752 811.171 973.625C811.171 975.48 812.379 976.81 814.077 976.81ZM820.525 978.84C821.155 978.98 821.785 978.7 821.785 978.07C821.015 978.14 820.455 977.667 820.455 976.95C820.455 976.302 820.892 975.83 821.505 975.83C822.24 975.83 822.765 976.512 822.765 977.475C822.765 978.735 821.925 979.82 820.455 979.61L820.525 978.84ZM830.182 978V969.25H831.372L831.529 970.755C832.002 969.705 833.157 969.04 834.452 969.04C836.429 969.04 837.847 970.58 837.847 972.68V978H836.447V972.82C836.447 971.42 835.502 970.44 834.172 970.44C832.702 970.44 831.582 971.612 831.582 973.24V978H830.182ZM841.307 978.14C840.659 978.14 840.187 977.65 840.187 976.985C840.187 976.32 840.659 975.83 841.307 975.83C841.954 975.83 842.427 976.32 842.427 976.985C842.427 977.65 841.954 978.14 841.307 978.14ZM851.876 972.155C850.283 972.155 849.146 970.982 849.146 969.355C849.146 967.727 850.283 966.555 851.876 966.555C853.468 966.555 854.606 967.727 854.606 969.355C854.606 970.982 853.468 972.155 851.876 972.155ZM851.876 970.965C852.751 970.965 853.381 970.282 853.381 969.337C853.381 968.392 852.751 967.71 851.876 967.71C851.001 967.71 850.371 968.392 850.371 969.337C850.371 970.282 851.001 970.965 851.876 970.965ZM860.907 973.8C862.535 972.662 863.497 970.527 863.497 968.06V966.625H864.967V967.64C864.967 970.3 863.987 972.61 862.447 973.94H866.507V968.83L867.977 968.55V973.94H869.867V975.34H867.977V978H866.507V975.34H860.907V973.8ZM875.436 978.21C873.074 978.21 871.376 976.565 871.376 974.255L872.916 973.8C872.794 975.515 873.896 976.74 875.471 976.74C876.871 976.74 877.887 975.76 877.887 974.395C877.887 972.785 876.416 971.7 874.736 972.26L873.756 971.21L877.256 968.025H871.936V966.625H879.077V968.06L876.066 970.737C878.027 970.93 879.427 972.417 879.427 974.43C879.427 976.635 877.764 978.21 875.436 978.21ZM885.801 978.21C883.508 978.21 881.846 976.845 881.846 974.885C881.846 973.502 882.686 972.365 883.981 971.91C882.896 971.49 882.266 970.597 882.266 969.46C882.266 967.692 883.788 966.415 885.801 966.415C887.831 966.415 889.336 967.692 889.336 969.46C889.336 970.597 888.706 971.49 887.621 971.91C888.916 972.365 889.756 973.502 889.756 974.885C889.756 976.845 888.093 978.21 885.801 978.21ZM885.801 976.775C887.236 976.775 888.251 975.917 888.251 974.71C888.251 973.485 887.236 972.61 885.801 972.61C884.366 972.61 883.351 973.485 883.351 974.71C883.351 975.917 884.366 976.775 885.801 976.775ZM885.801 971.28C887.026 971.28 887.901 970.562 887.901 969.53C887.901 968.497 887.026 967.78 885.801 967.78C884.576 967.78 883.701 968.497 883.701 969.53C883.701 970.562 884.576 971.28 885.801 971.28ZM896.608 974.167V972.802H904.939V974.167H896.608ZM916.211 978.21C913.639 978.21 911.731 976.67 911.591 974.43L913.201 974.01C913.271 975.62 914.514 976.775 916.246 976.775C917.646 976.775 918.731 976.005 918.731 974.92C918.731 972.207 912.081 973.03 912.081 969.39C912.081 967.57 913.761 966.415 915.896 966.415C918.066 966.415 919.711 967.64 919.921 969.46L918.311 969.915C918.171 968.725 917.191 967.815 915.791 967.815C914.671 967.815 913.691 968.41 913.691 969.32C913.691 971.7 920.341 971 920.341 974.92C920.341 976.862 918.679 978.21 916.211 978.21ZM925.281 978.21C923.549 978.21 922.411 977.212 922.411 975.69C922.411 974.482 923.374 973.502 924.861 973.24L927.556 972.75C927.854 972.697 928.081 972.47 928.081 972.19C928.081 971.087 927.329 970.3 926.261 970.3C925.141 970.3 924.301 971.105 924.231 972.33L922.691 972.155C922.866 970.335 924.319 969.04 926.191 969.04C928.116 969.04 929.481 970.387 929.481 972.26V976.25L929.516 978H928.396L928.151 976.67C927.609 977.615 926.559 978.21 925.281 978.21ZM923.951 975.62C923.951 976.355 924.581 976.845 925.561 976.845C927.031 976.845 928.081 975.83 928.081 974.43V973.817C927.924 973.852 927.731 973.905 927.521 973.94L925.211 974.36C924.441 974.5 923.951 974.99 923.951 975.62ZM932.391 978V966.1H933.791V978H932.391ZM939.216 978.21C937.484 978.21 936.346 977.212 936.346 975.69C936.346 974.482 937.309 973.502 938.796 973.24L941.491 972.75C941.789 972.697 942.016 972.47 942.016 972.19C942.016 971.087 941.264 970.3 940.196 970.3C939.076 970.3 938.236 971.105 938.166 972.33L936.626 972.155C936.801 970.335 938.254 969.04 940.126 969.04C942.051 969.04 943.416 970.387 943.416 972.26V976.25L943.451 978H942.331L942.086 976.67C941.544 977.615 940.494 978.21 939.216 978.21ZM937.886 975.62C937.886 976.355 938.516 976.845 939.496 976.845C940.966 976.845 942.016 975.83 942.016 974.43V973.817C941.859 973.852 941.666 973.905 941.456 973.94L939.146 974.36C938.376 974.5 937.886 974.99 937.886 975.62ZM950.207 973.8C951.834 972.662 952.797 970.527 952.797 968.06V966.625H954.267V967.64C954.267 970.3 953.287 972.61 951.747 973.94H955.807V968.83L957.277 968.55V973.94H959.167V975.34H957.277V978H955.807V975.34H950.207V973.8ZM965.646 978.21C962.811 978.21 960.816 975.76 960.816 972.312C960.816 968.865 962.811 966.415 965.646 966.415C968.481 966.415 970.476 968.865 970.476 972.312C970.476 975.76 968.481 978.21 965.646 978.21ZM965.646 976.74C967.571 976.74 968.936 974.902 968.936 972.295C968.936 969.687 967.571 967.85 965.646 967.85C963.721 967.85 962.356 969.687 962.356 972.295C962.356 974.902 963.721 976.74 965.646 976.74ZM976.878 978.21C974.516 978.21 972.748 976.565 972.748 974.255L974.288 973.8C974.148 975.48 975.268 976.74 976.843 976.74C978.331 976.74 979.398 975.655 979.398 974.15C979.398 972.645 978.348 971.56 976.878 971.56C975.968 971.56 975.128 971.98 974.708 972.61L973.168 972.19L973.868 966.625H980.448V968.025H975.128L974.691 970.965C975.251 970.51 976.161 970.23 977.053 970.23C979.311 970.23 980.938 971.892 980.938 974.22C980.938 976.547 979.241 978.21 976.878 978.21ZM987.583 974.167V972.802H993.673V974.167H987.583ZM1005.82 978.21C1002.64 978.21 1000.33 975.725 1000.33 972.312C1000.33 968.9 1002.58 966.415 1005.72 966.415C1008.18 966.415 1010.2 967.99 1010.62 970.3L1009.08 970.86C1008.8 969.11 1007.38 967.85 1005.72 967.85C1003.51 967.85 1001.9 969.722 1001.9 972.312C1001.9 974.885 1003.55 976.74 1005.82 976.74C1007.62 976.74 1008.97 975.48 1009.18 973.59L1010.76 974.08C1010.34 976.53 1008.41 978.21 1005.82 978.21ZM1017.09 978.21C1014.56 978.21 1012.75 976.302 1012.75 973.625C1012.75 970.947 1014.5 969.04 1016.95 969.04C1019.63 969.04 1021.28 971.262 1021.07 974.202H1014.31C1014.56 975.742 1015.64 976.81 1017.13 976.81C1018.32 976.81 1019.26 976.11 1019.47 975.13L1020.98 975.62C1020.56 977.16 1018.98 978.21 1017.09 978.21ZM1014.33 972.837H1019.58C1019.37 971.367 1018.32 970.405 1016.99 970.405C1015.61 970.405 1014.57 971.402 1014.33 972.837ZM1023.64 978V969.25H1024.83L1024.99 970.755C1025.46 969.705 1026.61 969.04 1027.91 969.04C1029.89 969.04 1031.3 970.58 1031.3 972.68V978H1029.9V972.82C1029.9 971.42 1028.96 970.44 1027.63 970.44C1026.16 970.44 1025.04 971.612 1025.04 973.24V978H1023.64ZM1037.88 978.07C1036.41 978.49 1034.49 978.07 1034.49 976.11V970.615H1033.09V969.25H1033.61C1034.19 969.25 1034.56 968.83 1034.56 968.165V967.01H1035.89V969.25H1037.85V970.615H1035.89V975.76C1035.89 976.74 1036.9 977.02 1037.81 976.67L1037.88 978.07ZM1040.33 978V969.25H1041.52L1041.66 970.65C1042.09 969.372 1043.44 968.76 1044.95 969.18L1044.88 970.825C1043.48 970.125 1041.73 970.702 1041.73 972.68V978H1040.33ZM1050.83 978.21C1048.27 978.21 1046.45 976.302 1046.45 973.625C1046.45 970.947 1048.27 969.04 1050.83 969.04C1053.38 969.04 1055.2 970.947 1055.2 973.625C1055.2 976.302 1053.38 978.21 1050.83 978.21ZM1050.83 976.81C1052.52 976.81 1053.73 975.48 1053.73 973.625C1053.73 971.752 1052.52 970.405 1050.83 970.405C1049.13 970.405 1047.92 971.752 1047.92 973.625C1047.92 975.48 1049.13 976.81 1050.83 976.81ZM388.9 1000.21C386.538 1000.21 384.84 998.495 384.84 996.08V993.98H386.345V996.01C386.345 997.602 387.413 998.74 388.918 998.74C390.423 998.74 391.49 997.602 391.49 996.01V988.625H392.96V996.01C392.96 998.46 391.263 1000.21 388.9 1000.21ZM399.62 1000.21C397.065 1000.21 395.245 998.302 395.245 995.625C395.245 992.947 397.065 991.04 399.62 991.04C402.175 991.04 403.995 992.947 403.995 995.625C403.995 998.302 402.175 1000.21 399.62 1000.21ZM399.62 998.81C401.317 998.81 402.525 997.48 402.525 995.625C402.525 993.752 401.317 992.405 399.62 992.405C397.922 992.405 396.715 993.752 396.715 995.625C396.715 997.48 397.922 998.81 399.62 998.81ZM408.868 1000.21C407.135 1000.21 405.998 999.212 405.998 997.69C405.998 996.482 406.96 995.502 408.448 995.24L411.143 994.75C411.44 994.697 411.668 994.47 411.668 994.19C411.668 993.087 410.915 992.3 409.848 992.3C408.728 992.3 407.888 993.105 407.818 994.33L406.278 994.155C406.453 992.335 407.905 991.04 409.778 991.04C411.703 991.04 413.068 992.387 413.068 994.26V998.25L413.103 1000H411.983L411.738 998.67C411.195 999.615 410.145 1000.21 408.868 1000.21ZM410.653 990.2C409.743 990.2 409.463 989.36 408.868 989.36C408.535 989.36 408.308 989.622 408.308 989.99V990.06H407.398V989.85C407.398 988.922 407.923 988.1 408.833 988.1C409.743 988.1 410.023 988.94 410.618 988.94C410.95 988.94 411.178 988.677 411.178 988.31V988.24H412.088V988.45C412.088 989.377 411.563 990.2 410.653 990.2ZM407.538 997.62C407.538 998.355 408.168 998.845 409.148 998.845C410.618 998.845 411.668 997.83 411.668 996.43V995.817C411.51 995.852 411.318 995.905 411.108 995.94L408.798 996.36C408.028 996.5 407.538 996.99 407.538 997.62ZM419.793 1000.21C417.238 1000.21 415.418 998.302 415.418 995.625C415.418 992.947 417.238 991.04 419.793 991.04C422.348 991.04 424.168 992.947 424.168 995.625C424.168 998.302 422.348 1000.21 419.793 1000.21ZM419.793 998.81C421.491 998.81 422.698 997.48 422.698 995.625C422.698 993.752 421.491 992.405 419.793 992.405C418.096 992.405 416.888 993.752 416.888 995.625C416.888 997.48 418.096 998.81 419.793 998.81ZM431.451 1000V988.625H436.247C438.294 988.625 439.782 990.13 439.782 992.195C439.782 994.277 438.259 995.8 436.177 995.8H432.921V1000H431.451ZM432.921 994.4H436.177C437.367 994.4 438.242 993.49 438.242 992.212C438.242 990.935 437.367 990.025 436.177 990.025H432.921V994.4ZM445.694 1000.21C443.157 1000.21 441.354 998.302 441.354 995.625C441.354 992.947 443.104 991.04 445.554 991.04C448.232 991.04 449.877 993.262 449.667 996.202H442.912C443.157 997.742 444.242 998.81 445.729 998.81C446.919 998.81 447.864 998.11 448.074 997.13L449.579 997.62C449.159 999.16 447.584 1000.21 445.694 1000.21ZM442.929 994.837H448.179C447.969 993.367 446.919 992.405 445.589 992.405C444.207 992.405 443.174 993.402 442.929 994.837ZM455.32 1000.21C453.22 1000.21 451.68 999.02 451.54 997.41L453.08 996.99C453.15 998.04 454.13 998.88 455.39 998.88C456.37 998.88 457.14 998.355 457.14 997.62C457.14 995.66 451.96 996.43 451.96 993.49C451.96 992.055 453.22 991.04 455.04 991.04C456.86 991.04 458.207 992.037 458.4 993.42L456.93 993.805C456.895 992.947 456.125 992.335 455.075 992.335C454.13 992.335 453.465 992.825 453.465 993.49C453.465 995.38 458.68 994.61 458.68 997.62C458.68 999.125 457.28 1000.21 455.32 1000.21ZM464.176 1000.21C462.076 1000.21 460.536 999.02 460.396 997.41L461.936 996.99C462.006 998.04 462.986 998.88 464.246 998.88C465.226 998.88 465.996 998.355 465.996 997.62C465.996 995.66 460.816 996.43 460.816 993.49C460.816 992.055 462.076 991.04 463.896 991.04C465.716 991.04 467.064 992.037 467.256 993.42L465.786 993.805C465.751 992.947 464.981 992.335 463.931 992.335C462.986 992.335 462.321 992.825 462.321 993.49C462.321 995.38 467.536 994.61 467.536 997.62C467.536 999.125 466.136 1000.21 464.176 1000.21ZM473.767 1000.21C471.212 1000.21 469.392 998.302 469.392 995.625C469.392 992.947 471.212 991.04 473.767 991.04C476.322 991.04 478.142 992.947 478.142 995.625C478.142 998.302 476.322 1000.21 473.767 1000.21ZM473.767 998.81C475.465 998.81 476.672 997.48 476.672 995.625C476.672 993.752 475.465 992.405 473.767 992.405C472.07 992.405 470.862 993.752 470.862 995.625C470.862 997.48 472.07 998.81 473.767 998.81ZM483.015 1000.21C481.283 1000.21 480.145 999.212 480.145 997.69C480.145 996.482 481.108 995.502 482.595 995.24L485.29 994.75C485.588 994.697 485.815 994.47 485.815 994.19C485.815 993.087 485.063 992.3 483.995 992.3C482.875 992.3 482.035 993.105 481.965 994.33L480.425 994.155C480.6 992.335 482.053 991.04 483.925 991.04C485.85 991.04 487.215 992.387 487.215 994.26V998.25L487.25 1000H486.13L485.885 998.67C485.343 999.615 484.293 1000.21 483.015 1000.21ZM481.685 997.62C481.685 998.355 482.315 998.845 483.295 998.845C484.765 998.845 485.815 997.83 485.815 996.43V995.817C485.658 995.852 485.465 995.905 485.255 995.94L482.945 996.36C482.175 996.5 481.685 996.99 481.685 997.62ZM490.265 1003.57L488.865 1003.36L491.84 988.03L493.205 988.24L490.265 1003.57ZM495.273 1000V988.625H500.068C502.116 988.625 503.603 990.13 503.603 992.195C503.603 994.277 502.081 995.8 499.998 995.8H496.743V1000H495.273ZM496.743 994.4H499.998C501.188 994.4 502.063 993.49 502.063 992.212C502.063 990.935 501.188 990.025 499.998 990.025H496.743V994.4ZM505.941 1000V988.625H510.911C512.853 988.625 514.236 989.832 514.236 991.53C514.236 992.72 513.501 993.735 512.311 994.085C513.711 994.435 514.621 995.52 514.621 996.92C514.621 998.722 513.256 1000 511.331 1000H505.941ZM507.411 998.565H511.051C512.241 998.565 513.116 997.795 513.116 996.727C513.116 995.66 512.241 994.89 511.051 994.89H507.411V998.565ZM507.411 993.49H510.771C511.908 993.49 512.731 992.755 512.731 991.757C512.731 990.76 511.908 990.025 510.771 990.025H507.411V993.49ZM521.892 1003.5V988.1H523.328V1003.5H521.892ZM536.167 1000.21C532.982 1000.21 530.672 997.725 530.672 994.312C530.672 990.9 532.93 988.415 536.062 988.415C538.53 988.415 540.542 989.99 540.962 992.3L539.422 992.86C539.142 991.11 537.725 989.85 536.062 989.85C533.857 989.85 532.247 991.722 532.247 994.312C532.247 996.885 533.892 998.74 536.167 998.74C537.97 998.74 539.317 997.48 539.527 995.59L541.102 996.08C540.682 998.53 538.757 1000.21 536.167 1000.21ZM543.659 1000V988.625H551.429V990.025H545.129V993.49H550.589V994.89H545.129V998.565H551.569V1000H543.659ZM554.121 1000V988.625H558.916C560.964 988.625 562.451 990.13 562.451 992.195C562.451 994.277 560.929 995.8 558.846 995.8H555.591V1000H554.121ZM555.591 994.4H558.846C560.036 994.4 560.911 993.49 560.911 992.212C560.911 990.935 560.036 990.025 558.846 990.025H555.591V994.4ZM573.219 1000.21C570.857 1000.21 569.089 998.565 569.089 996.255L570.629 995.8C570.489 997.48 571.609 998.74 573.184 998.74C574.672 998.74 575.739 997.655 575.739 996.15C575.739 994.645 574.689 993.56 573.219 993.56C572.309 993.56 571.469 993.98 571.049 994.61L569.509 994.19L570.209 988.625H576.789V990.025H571.469L571.032 992.965C571.592 992.51 572.502 992.23 573.394 992.23C575.652 992.23 577.279 993.892 577.279 996.22C577.279 998.547 575.582 1000.21 573.219 1000.21ZM583.578 1000.21C581.286 1000.21 579.623 998.845 579.623 996.885C579.623 995.502 580.463 994.365 581.758 993.91C580.673 993.49 580.043 992.597 580.043 991.46C580.043 989.692 581.566 988.415 583.578 988.415C585.608 988.415 587.113 989.692 587.113 991.46C587.113 992.597 586.483 993.49 585.398 993.91C586.693 994.365 587.533 995.502 587.533 996.885C587.533 998.845 585.871 1000.21 583.578 1000.21ZM583.578 998.775C585.013 998.775 586.028 997.917 586.028 996.71C586.028 995.485 585.013 994.61 583.578 994.61C582.143 994.61 581.128 995.485 581.128 996.71C581.128 997.917 582.143 998.775 583.578 998.775ZM583.578 993.28C584.803 993.28 585.678 992.562 585.678 991.53C585.678 990.497 584.803 989.78 583.578 989.78C582.353 989.78 581.478 990.497 581.478 991.53C581.478 992.562 582.353 993.28 583.578 993.28ZM590.721 1000.14C590.073 1000.14 589.601 999.65 589.601 998.985C589.601 998.32 590.073 997.83 590.721 997.83C591.368 997.83 591.841 998.32 591.841 998.985C591.841 999.65 591.368 1000.14 590.721 1000.14ZM598.454 1000.21C595.619 1000.21 593.624 997.76 593.624 994.312C593.624 990.865 595.619 988.415 598.454 988.415C601.289 988.415 603.284 990.865 603.284 994.312C603.284 997.76 601.289 1000.21 598.454 1000.21ZM598.454 998.74C600.379 998.74 601.744 996.902 601.744 994.295C601.744 991.687 600.379 989.85 598.454 989.85C596.529 989.85 595.164 991.687 595.164 994.295C595.164 996.902 596.529 998.74 598.454 998.74ZM607.306 1000V992.405H604.996V991.04H605.766C606.711 991.04 607.376 990.34 607.376 989.36V988.625H608.776V1000H607.306ZM615.393 1000.21C613.03 1000.21 611.333 998.565 611.333 996.255L612.873 995.8C612.75 997.515 613.853 998.74 615.428 998.74C616.828 998.74 617.843 997.76 617.843 996.395C617.843 994.785 616.373 993.7 614.693 994.26L613.713 993.21L617.213 990.025H611.893V988.625H619.033V990.06L616.023 992.737C617.983 992.93 619.383 994.417 619.383 996.43C619.383 998.635 617.72 1000.21 615.393 1000.21ZM621.382 996.167V994.802H627.472V996.167H621.382ZM631.225 1000V992.405H628.915V991.04H629.685C630.63 991.04 631.295 990.34 631.295 989.36V988.625H632.695V1000H631.225ZM635.322 999.65C635.322 997.2 636.53 995.94 638.752 994.96C640.012 994.4 641.342 993.7 641.342 992.09C641.342 990.777 640.467 989.85 639.242 989.85C637.772 989.85 636.792 991.18 637.072 992.79L635.497 993C635.217 990.2 636.775 988.415 639.172 988.415C641.272 988.415 642.777 989.85 642.777 991.95C642.777 993.875 641.43 995.065 639.82 995.835C638.28 996.57 637.072 997.375 636.932 998.495H642.812V1000H635.322V999.65ZM649.642 1000.21C646.807 1000.21 644.812 997.76 644.812 994.312C644.812 990.865 646.807 988.415 649.642 988.415C652.477 988.415 654.472 990.865 654.472 994.312C654.472 997.76 652.477 1000.21 649.642 1000.21ZM649.642 998.74C651.567 998.74 652.932 996.902 652.932 994.295C652.932 991.687 651.567 989.85 649.642 989.85C647.717 989.85 646.352 991.687 646.352 994.295C646.352 996.902 647.717 998.74 649.642 998.74ZM661.885 1003.5V988.1H663.32V1003.5H661.885ZM674.165 1000V990.025H670.069V988.625H679.73V990.025H675.635V1000H674.165ZM683.996 1000.21C681.458 1000.21 679.656 998.302 679.656 995.625C679.656 992.947 681.406 991.04 683.856 991.04C686.533 991.04 688.178 993.262 687.968 996.202H681.213C681.458 997.742 682.543 998.81 684.031 998.81C685.221 998.81 686.166 998.11 686.376 997.13L687.881 997.62C687.461 999.16 685.886 1000.21 683.996 1000.21ZM681.231 994.837H686.481C686.271 993.367 685.221 992.405 683.891 992.405C682.508 992.405 681.476 993.402 681.231 994.837ZM690.542 1000V988.1H691.942V1000H690.542ZM695.617 1000.14C694.969 1000.14 694.497 999.65 694.497 998.985C694.497 998.32 694.969 997.83 695.617 997.83C696.264 997.83 696.737 998.32 696.737 998.985C696.737 999.65 696.264 1000.14 695.617 1000.14ZM700.135 994.54C699.488 994.54 699.015 994.05 699.015 993.385C699.015 992.72 699.488 992.23 700.135 992.23C700.783 992.23 701.255 992.72 701.255 993.385C701.255 994.05 700.783 994.54 700.135 994.54ZM700.135 1000.14C699.488 1000.14 699.015 999.65 699.015 998.985C699.015 998.32 699.488 997.83 700.135 997.83C700.783 997.83 701.255 998.32 701.255 998.985C701.255 999.65 700.783 1000.14 700.135 1000.14ZM712.346 1000.21C710.053 1000.21 708.391 998.845 708.391 996.885C708.391 995.502 709.231 994.365 710.526 993.91C709.441 993.49 708.811 992.597 708.811 991.46C708.811 989.692 710.333 988.415 712.346 988.415C714.376 988.415 715.881 989.692 715.881 991.46C715.881 992.597 715.251 993.49 714.166 993.91C715.461 994.365 716.301 995.502 716.301 996.885C716.301 998.845 714.638 1000.21 712.346 1000.21ZM712.346 998.775C713.781 998.775 714.796 997.917 714.796 996.71C714.796 995.485 713.781 994.61 712.346 994.61C710.911 994.61 709.896 995.485 709.896 996.71C709.896 997.917 710.911 998.775 712.346 998.775ZM712.346 993.28C713.571 993.28 714.446 992.562 714.446 991.53C714.446 990.497 713.571 989.78 712.346 989.78C711.121 989.78 710.246 990.497 710.246 991.53C710.246 992.562 711.121 993.28 712.346 993.28ZM722.633 1000.21C720.271 1000.21 718.573 998.565 718.573 996.255L720.113 995.8C719.991 997.515 721.093 998.74 722.668 998.74C724.068 998.74 725.083 997.76 725.083 996.395C725.083 994.785 723.613 993.7 721.933 994.26L720.953 993.21L724.453 990.025H719.133V988.625H726.273V990.06L723.263 992.737C725.223 992.93 726.623 994.417 726.623 996.43C726.623 998.635 724.961 1000.21 722.633 1000.21ZM737.123 1000.21C735.215 1000.21 733.745 998.967 733.553 997.13L735.233 996.71C735.268 997.987 736.055 998.775 737.193 998.775C738.89 998.775 740.133 997.112 740.238 994.435C739.8 995.397 738.715 996.08 737.368 996.08C735.303 996.08 733.623 994.487 733.623 992.265C733.623 990.042 735.268 988.415 737.473 988.415C740.063 988.415 741.638 990.55 741.638 994.12C741.638 997.847 739.818 1000.21 737.123 1000.21ZM737.473 994.68C738.838 994.68 739.818 993.647 739.818 992.23C739.818 990.812 738.838 989.78 737.473 989.78C736.108 989.78 735.128 990.812 735.128 992.23C735.128 993.647 736.108 994.68 737.473 994.68ZM747.804 1000.21C745.512 1000.21 743.849 998.845 743.849 996.885C743.849 995.502 744.689 994.365 745.984 993.91C744.899 993.49 744.269 992.597 744.269 991.46C744.269 989.692 745.792 988.415 747.804 988.415C749.835 988.415 751.34 989.692 751.34 991.46C751.34 992.597 750.71 993.49 749.625 993.91C750.92 994.365 751.76 995.502 751.76 996.885C751.76 998.845 750.097 1000.21 747.804 1000.21ZM747.804 998.775C749.24 998.775 750.255 997.917 750.255 996.71C750.255 995.485 749.24 994.61 747.804 994.61C746.369 994.61 745.354 995.485 745.354 996.71C745.354 997.917 746.369 998.775 747.804 998.775ZM747.804 993.28C749.03 993.28 749.905 992.562 749.905 991.53C749.905 990.497 749.03 989.78 747.804 989.78C746.579 989.78 745.704 990.497 745.704 991.53C745.704 992.562 746.579 993.28 747.804 993.28ZM755.367 1000C755.367 995.94 756.907 992.44 759.637 990.06H753.477V988.625H761.037V990.13C758.447 992.51 756.977 995.94 756.977 999.93V1000H755.367ZM766.606 1000.21C764.244 1000.21 762.546 998.565 762.546 996.255L764.086 995.8C763.964 997.515 765.066 998.74 766.641 998.74C768.041 998.74 769.056 997.76 769.056 996.395C769.056 994.785 767.586 993.7 765.906 994.26L764.926 993.21L768.426 990.025H763.106V988.625H770.246V990.06L767.236 992.737C769.196 992.93 770.596 994.417 770.596 996.43C770.596 998.635 768.934 1000.21 766.606 1000.21ZM774.07 1000C774.07 995.94 775.61 992.44 778.34 990.06H772.18V988.625H779.741V990.13C777.15 992.51 775.68 995.94 775.68 999.93V1000H774.07ZM781.11 996.167V994.802H787.2V996.167H781.11ZM790.953 1000V992.405H788.643V991.04H789.413C790.358 991.04 791.023 990.34 791.023 989.36V988.625H792.423V1000H790.953ZM795.05 999.65C795.05 997.2 796.258 995.94 798.48 994.96C799.74 994.4 801.07 993.7 801.07 992.09C801.07 990.777 800.195 989.85 798.97 989.85C797.5 989.85 796.52 991.18 796.8 992.79L795.225 993C794.945 990.2 796.503 988.415 798.9 988.415C801 988.415 802.505 989.85 802.505 991.95C802.505 993.875 801.158 995.065 799.548 995.835C798.008 996.57 796.8 997.375 796.66 998.495H802.54V1000H795.05V999.65ZM809.37 1000.21C806.535 1000.21 804.54 997.76 804.54 994.312C804.54 990.865 806.535 988.415 809.37 988.415C812.205 988.415 814.2 990.865 814.2 994.312C814.2 997.76 812.205 1000.21 809.37 1000.21ZM809.37 998.74C811.295 998.74 812.66 996.902 812.66 994.295C812.66 991.687 811.295 989.85 809.37 989.85C807.445 989.85 806.08 991.687 806.08 994.295C806.08 996.902 807.445 998.74 809.37 998.74ZM819.973 1000.21C818.065 1000.21 816.595 998.967 816.402 997.13L818.082 996.71C818.117 997.987 818.905 998.775 820.043 998.775C821.74 998.775 822.983 997.112 823.088 994.435C822.65 995.397 821.565 996.08 820.218 996.08C818.152 996.08 816.472 994.487 816.472 992.265C816.472 990.042 818.117 988.415 820.323 988.415C822.913 988.415 824.488 990.55 824.488 994.12C824.488 997.847 822.668 1000.21 819.973 1000.21ZM820.323 994.68C821.688 994.68 822.668 993.647 822.668 992.23C822.668 990.812 821.688 989.78 820.323 989.78C818.957 989.78 817.977 990.812 817.977 992.23C817.977 993.647 818.957 994.68 820.323 994.68ZM831.973 1003.5V988.1H833.408V1003.5H831.973ZM841.942 1000L840.542 991.25H842.013L842.958 998.18L844.883 991.25H846.423L848.243 998.18L849.293 991.25H850.693L849.153 1000H847.473L845.618 993.14L843.693 1000H841.942ZM853.806 1000L852.406 991.25H853.876L854.822 998.18L856.747 991.25H858.287L860.107 998.18L861.157 991.25H862.557L861.017 1000H859.337L857.482 993.14L855.557 1000H853.806ZM865.67 1000L864.27 991.25H865.74L866.685 998.18L868.611 991.25H870.151L871.971 998.18L873.021 991.25H874.421L872.881 1000H871.201L869.346 993.14L867.42 1000H865.67ZM877.394 1000.14C876.747 1000.14 876.274 999.65 876.274 998.985C876.274 998.32 876.747 997.83 877.394 997.83C878.042 997.83 878.514 998.32 878.514 998.985C878.514 999.65 878.042 1000.14 877.394 1000.14ZM885.028 1000.07C883.558 1000.49 881.633 1000.07 881.633 998.11V992.615H880.233V991.25H880.758C881.335 991.25 881.703 990.83 881.703 990.165V989.01H883.033V991.25H884.993V992.615H883.033V997.76C883.033 998.74 884.048 999.02 884.958 998.67L885.028 1000.07ZM891.255 1003.71C889.12 1003.71 887.387 1002.43 887.125 1000.63L888.665 1000.21C888.84 1001.42 889.942 1002.28 891.325 1002.28C892.917 1002.28 894.055 1001.17 894.055 999.65V998.25L894.072 998.092C893.372 999.107 892.235 999.72 890.87 999.72C888.49 999.72 886.775 997.917 886.775 995.397C886.775 992.86 888.49 991.04 890.905 991.04C892.27 991.04 893.407 991.67 894.107 992.685L894.23 991.25H895.455V999.51C895.455 1001.96 893.705 1003.71 891.255 1003.71ZM891.15 998.39C892.847 998.39 894.055 997.147 894.055 995.397C894.055 993.647 892.847 992.405 891.15 992.405C889.452 992.405 888.245 993.647 888.245 995.397C888.245 997.147 889.452 998.39 891.15 998.39ZM902.381 1000.07C900.911 1000.49 898.986 1000.07 898.986 998.11V992.615H897.586V991.25H898.111C898.689 991.25 899.056 990.83 899.056 990.165V989.01H900.386V991.25H902.346V992.615H900.386V997.76C900.386 998.74 901.401 999.02 902.311 998.67L902.381 1000.07ZM904.825 1000V991.25H906.015L906.155 992.65C906.592 991.372 907.94 990.76 909.445 991.18L909.375 992.825C907.975 992.125 906.225 992.702 906.225 994.68V1000H904.825ZM915.29 1000.21C912.753 1000.21 910.95 998.302 910.95 995.625C910.95 992.947 912.7 991.04 915.15 991.04C917.828 991.04 919.473 993.262 919.263 996.202H912.508C912.753 997.742 913.838 998.81 915.325 998.81C916.515 998.81 917.46 998.11 917.67 997.13L919.175 997.62C918.755 999.16 917.18 1000.21 915.29 1000.21ZM912.525 994.837H917.775C917.565 993.367 916.515 992.405 915.185 992.405C913.803 992.405 912.77 993.402 912.525 994.837ZM924.916 1000.21C922.816 1000.21 921.276 999.02 921.136 997.41L922.676 996.99C922.746 998.04 923.726 998.88 924.986 998.88C925.966 998.88 926.736 998.355 926.736 997.62C926.736 995.66 921.556 996.43 921.556 993.49C921.556 992.055 922.816 991.04 924.636 991.04C926.456 991.04 927.804 992.037 927.996 993.42L926.526 993.805C926.491 992.947 925.721 992.335 924.671 992.335C923.726 992.335 923.061 992.825 923.061 993.49C923.061 995.38 928.276 994.61 928.276 997.62C928.276 999.125 926.876 1000.21 924.916 1000.21ZM933.877 1000.21C931.882 1000.21 930.482 998.81 930.482 996.78V991.25H931.882V996.57C931.882 997.847 932.845 998.775 934.192 998.775C935.627 998.775 936.642 997.742 936.642 996.29V991.25H938.042V998.25L938.077 1000H936.852L936.642 998.6C936.257 999.58 935.207 1000.21 933.877 1000.21ZM941.155 1000V988.1H942.555V1000H941.155ZM949.485 1000.07C948.015 1000.49 946.09 1000.07 946.09 998.11V992.615H944.69V991.25H945.215C945.793 991.25 946.16 990.83 946.16 990.165V989.01H947.49V991.25H949.45V992.615H947.49V997.76C947.49 998.74 948.505 999.02 949.415 998.67L949.485 1000.07ZM954.239 1000.21C952.506 1000.21 951.369 999.212 951.369 997.69C951.369 996.482 952.331 995.502 953.819 995.24L956.514 994.75C956.811 994.697 957.039 994.47 957.039 994.19C957.039 993.087 956.286 992.3 955.219 992.3C954.099 992.3 953.259 993.105 953.189 994.33L951.649 994.155C951.824 992.335 953.276 991.04 955.149 991.04C957.074 991.04 958.439 992.387 958.439 994.26V998.25L958.474 1000H957.354L957.109 998.67C956.566 999.615 955.516 1000.21 954.239 1000.21ZM952.909 997.62C952.909 998.355 953.539 998.845 954.519 998.845C955.989 998.845 957.039 997.83 957.039 996.43V995.817C956.881 995.852 956.689 995.905 956.479 995.94L954.169 996.36C953.399 996.5 952.909 996.99 952.909 997.62ZM964.884 1000.21C962.504 1000.21 960.789 998.285 960.789 995.59C960.789 992.93 962.486 991.04 964.849 991.04C966.196 991.04 967.334 991.67 968.069 992.685V988.1H969.469V998.25L969.504 1000H968.314L968.139 998.495C967.404 999.562 966.266 1000.21 964.884 1000.21ZM965.181 998.81C966.879 998.81 968.104 997.48 968.104 995.625C968.104 993.752 966.879 992.405 965.181 992.405C963.484 992.405 962.259 993.752 962.259 995.625C962.259 997.48 963.484 998.81 965.181 998.81ZM976.395 1000.21C973.84 1000.21 972.02 998.302 972.02 995.625C972.02 992.947 973.84 991.04 976.395 991.04C978.95 991.04 980.77 992.947 980.77 995.625C980.77 998.302 978.95 1000.21 976.395 1000.21ZM976.395 998.81C978.093 998.81 979.3 997.48 979.3 995.625C979.3 993.752 978.093 992.405 976.395 992.405C974.698 992.405 973.49 993.752 973.49 995.625C973.49 997.48 974.698 998.81 976.395 998.81ZM986.413 1000.21C984.313 1000.21 982.773 999.02 982.633 997.41L984.173 996.99C984.243 998.04 985.223 998.88 986.483 998.88C987.463 998.88 988.233 998.355 988.233 997.62C988.233 995.66 983.053 996.43 983.053 993.49C983.053 992.055 984.313 991.04 986.133 991.04C987.953 991.04 989.301 992.037 989.494 993.42L988.023 993.805C987.988 992.947 987.218 992.335 986.168 992.335C985.223 992.335 984.558 992.825 984.558 993.49C984.558 995.38 989.774 994.61 989.774 997.62C989.774 999.125 988.373 1000.21 986.413 1000.21ZM992.75 1000.14C992.102 1000.14 991.63 999.65 991.63 998.985C991.63 998.32 992.102 997.83 992.75 997.83C993.397 997.83 993.87 998.32 993.87 998.985C993.87 999.65 993.397 1000.14 992.75 1000.14ZM1000.28 1000.21C997.793 1000.21 996.008 998.302 996.008 995.625C996.008 992.947 997.758 991.04 1000.21 991.04C1002.22 991.04 1003.85 992.317 1004.13 994.12L1002.66 994.61C1002.52 993.332 1001.5 992.405 1000.21 992.405C998.633 992.405 997.513 993.735 997.513 995.59C997.513 997.48 998.668 998.81 1000.28 998.81C1001.61 998.81 1002.59 997.9 1002.73 996.5L1004.27 996.99C1003.99 998.862 1002.33 1000.21 1000.28 1000.21ZM1010.57 1000.21C1008.02 1000.21 1006.2 998.302 1006.2 995.625C1006.2 992.947 1008.02 991.04 1010.57 991.04C1013.13 991.04 1014.95 992.947 1014.95 995.625C1014.95 998.302 1013.13 1000.21 1010.57 1000.21ZM1010.57 998.81C1012.27 998.81 1013.48 997.48 1013.48 995.625C1013.48 993.752 1012.27 992.405 1010.57 992.405C1008.87 992.405 1007.67 993.752 1007.67 995.625C1007.67 997.48 1008.87 998.81 1010.57 998.81ZM1017.51 1000V991.25H1018.63L1018.86 992.842C1019.19 991.775 1020.26 991.04 1021.54 991.04C1022.8 991.04 1023.92 991.775 1024.41 992.877C1024.81 991.775 1025.91 991.04 1027.24 991.04C1029.11 991.04 1030.46 992.562 1030.46 994.68V1000H1029.06V994.75C1029.06 993.42 1028.22 992.475 1027.03 992.475C1025.68 992.475 1024.72 993.577 1024.72 995.1V1000H1023.34V994.75C1023.34 993.42 1022.48 992.475 1021.29 992.475C1019.91 992.475 1018.91 993.595 1018.91 995.17V1000H1017.51ZM1033.93 1000.14C1033.29 1000.14 1032.81 999.65 1032.81 998.985C1032.81 998.32 1033.29 997.83 1033.93 997.83C1034.58 997.83 1035.05 998.32 1035.05 998.985C1035.05 999.65 1034.58 1000.14 1033.93 1000.14ZM1042.3 1000.21C1040.95 1000.21 1039.83 999.597 1039.12 998.565L1038.94 1000H1037.75V988.1H1039.15V992.615C1039.89 991.635 1041.01 991.04 1042.34 991.04C1044.7 991.04 1046.4 992.93 1046.4 995.59C1046.4 998.285 1044.68 1000.21 1042.3 1000.21ZM1042.02 998.81C1043.72 998.81 1044.93 997.48 1044.93 995.625C1044.93 993.752 1043.72 992.405 1042.02 992.405C1040.32 992.405 1039.12 993.752 1039.12 995.625C1039.12 997.48 1040.32 998.81 1042.02 998.81ZM1048.95 1000V991.25H1050.14L1050.28 992.65C1050.72 991.372 1052.06 990.76 1053.57 991.18L1053.5 992.825C1052.1 992.125 1050.35 992.702 1050.35 994.68V1000H1048.95Z" fill="#3E5684"/>
<path d="M394.806 34V25.0748H391.201V22.6248H401.001V25.0748H397.396V34H394.806ZM407.095 34.21C404.05 34.21 401.845 31.7425 401.845 28.3299C401.845 24.8298 404.225 22.4148 407.445 22.4148C409.895 22.4148 411.925 23.9023 412.345 26.0199L409.79 26.9299C409.58 25.7049 408.635 24.8298 407.375 24.8298C405.73 24.8298 404.575 26.2474 404.575 28.2599C404.575 30.2724 405.8 31.76 407.48 31.76C408.81 31.76 409.843 30.8324 409.965 29.5199H406.22V27.6999H412.415L412.975 34H411.365L410.84 31.7775C410.42 33.23 408.95 34.21 407.095 34.21ZM417.56 34V25.0748H413.955V22.6248H423.755V25.0748H420.15V34H417.56ZM432.691 34V25.0748H429.086V22.6248H438.887V25.0748H435.282V34H432.691ZM440.68 34V22.6248H446.42C448.502 22.6248 449.99 24.1298 449.99 26.2649C449.99 27.7349 449.22 28.9074 447.977 29.4849L450.2 34H447.12L445.615 29.8699H443.27V34H440.68ZM443.27 28.0499H445.755C446.63 28.0499 447.26 27.4199 447.26 26.5099C447.26 25.5998 446.665 24.9698 445.825 24.9698H443.27V28.0499ZM452.407 34V22.6248H460.562V24.9698H454.997V27.2799H459.547V29.0999H454.997V31.62H460.737V34H452.407ZM462.972 34V22.6248H465.562V34H462.972ZM468.188 34V22.6248H471.128L475.188 30.3249V22.6248H477.778V34H474.908L470.778 26.3699V34H468.188ZM479.606 34L483.631 22.6248H486.781L490.806 34H488.006L487.166 31.41H483.246L482.441 34H479.606ZM483.823 29.5899H486.571L485.171 25.2498L483.823 29.5899ZM492.634 34V22.6248H496.169L498.724 31.62L501.244 22.6248H504.674V34H502.084V25.1798L499.616 34H497.761L495.224 25.1798V34H492.634ZM507.3 34V22.6248H515.456V24.9698H509.89V27.2799H514.44V29.0999H509.89V31.62H515.631V34H507.3ZM517.866 34V22.6248H520.806L524.866 30.3249V22.6248H527.456V34H524.586L520.456 26.3699V34H517.866ZM532.853 34V25.0748H529.248V22.6248H539.049V25.0748H535.443V34H532.853ZM545.563 34.21C542.238 34.21 539.893 31.76 539.893 28.3124C539.893 24.8648 542.238 22.4148 545.563 22.4148C548.888 22.4148 551.233 24.8648 551.233 28.3124C551.233 31.76 548.888 34.21 545.563 34.21ZM545.563 31.69C547.278 31.69 548.503 30.2724 548.503 28.2774C548.503 26.2824 547.278 24.8648 545.563 24.8648C543.848 24.8648 542.623 26.2824 542.623 28.2774C542.623 30.2724 543.848 31.69 545.563 31.69ZM557.853 34.21C555.018 34.21 552.883 32.6875 552.813 30.6224L555.823 29.9924C555.893 31.0949 556.68 31.9 557.993 31.9C558.85 31.9 559.673 31.55 559.673 30.7799C559.673 28.6099 553.303 29.0299 553.303 25.5298C553.303 23.7098 554.983 22.4148 557.503 22.4148C560.075 22.4148 561.983 23.7098 562.193 25.5298L559.288 26.2299C559.218 25.3023 558.448 24.6548 557.433 24.6548C556.575 24.6548 555.963 25.1273 555.963 25.7749C555.963 27.8399 562.473 27.2099 562.473 30.8499C562.473 32.8275 560.565 34.21 557.853 34.21ZM569.016 34V22.6248H577.171V24.9698H571.606V27.2799H576.156V29.0999H571.606V31.62H577.346V34H569.016ZM583.96 34V22.6248H588.3C591.608 22.6248 593.97 24.9873 593.97 28.3124C593.97 31.6025 591.66 34 588.51 34H583.96ZM586.55 31.62H588.37C590.033 31.62 591.24 30.2199 591.24 28.2949C591.24 26.3524 589.98 24.9698 588.23 24.9698H586.55V31.62ZM596.217 34V22.6248H604.372V24.9698H598.807V27.2799H603.357V29.0999H598.807V31.62H604.547V34H596.217ZM611.297 34.21C608.462 34.21 606.327 32.6875 606.257 30.6224L609.267 29.9924C609.337 31.0949 610.125 31.9 611.437 31.9C612.295 31.9 613.117 31.55 613.117 30.7799C613.117 28.6099 606.747 29.0299 606.747 25.5298C606.747 23.7098 608.427 22.4148 610.947 22.4148C613.52 22.4148 615.427 23.7098 615.637 25.5298L612.732 26.2299C612.662 25.3023 611.892 24.6548 610.877 24.6548C610.02 24.6548 609.407 25.1273 609.407 25.7749C609.407 27.8399 615.917 27.2099 615.917 30.8499C615.917 32.8275 614.01 34.21 611.297 34.21ZM618.082 34V22.6248H626.237V24.9698H620.672V27.2799H625.222V29.0999H620.672V31.62H626.412V34H618.082ZM628.647 34V22.6248H631.587L635.647 30.3249V22.6248H638.237V34H635.367L631.237 26.3699V34H628.647ZM643.705 34L640.03 22.6248H642.9L645.455 31.515L647.94 22.6248H650.74L647.065 34H643.705ZM657.421 34.21C654.096 34.21 651.751 31.76 651.751 28.3124C651.751 24.8648 654.096 22.4148 657.421 22.4148C660.746 22.4148 663.091 24.8648 663.091 28.3124C663.091 31.76 660.746 34.21 657.421 34.21ZM657.421 31.69C659.136 31.69 660.361 30.2724 660.361 28.2774C660.361 26.2824 659.136 24.8648 657.421 24.8648C655.706 24.8648 654.481 26.2824 654.481 28.2774C654.481 30.2724 655.706 31.69 657.421 31.69ZM665.333 34V22.6248H667.923V31.515H673.173V34H665.333ZM676.734 34L673.059 22.6248H675.929L678.484 31.515L680.969 22.6248H683.769L680.094 34H676.734ZM685.557 34V22.6248H688.148V34H685.557ZM690.773 34V22.6248H694.308L696.864 31.62L699.384 22.6248H702.814V34H700.224V25.1798L697.756 34H695.901L693.363 25.1798V34H690.773ZM705.44 34V22.6248H713.595V24.9698H708.03V27.2799H712.58V29.0999H708.03V31.62H713.77V34H705.44ZM716.005 34V22.6248H718.945L723.005 30.3249V22.6248H725.595V34H722.725L718.595 26.3699V34H716.005ZM730.993 34V25.0748H727.388V22.6248H737.188V25.0748H733.583V34H730.993ZM743.702 34.21C740.377 34.21 738.032 31.76 738.032 28.3124C738.032 24.8648 740.377 22.4148 743.702 22.4148C747.027 22.4148 749.373 24.8648 749.373 28.3124C749.373 31.76 747.027 34.21 743.702 34.21ZM743.702 31.69C745.417 31.69 746.642 30.2724 746.642 28.2774C746.642 26.2824 745.417 24.8648 743.702 24.8648C741.987 24.8648 740.762 26.2824 740.762 28.2774C740.762 30.2724 741.987 31.69 743.702 31.69ZM755.993 34V22.6248H761.418C763.605 22.6248 765.163 24.1823 765.163 26.4049C765.163 28.6449 763.553 30.2199 761.278 30.2199H758.583V34H755.993ZM758.583 28.1899H760.998C761.838 28.1899 762.433 27.5249 762.433 26.5799C762.433 25.6348 761.838 24.9698 760.998 24.9698H758.583V28.1899ZM767.156 34V22.6248H772.896C774.979 22.6248 776.466 24.1298 776.466 26.2649C776.466 27.7349 775.696 28.9074 774.454 29.4849L776.676 34H773.596L772.091 29.8699H769.746V34H767.156ZM769.746 28.0499H772.231C773.106 28.0499 773.736 27.4199 773.736 26.5099C773.736 25.5998 773.141 24.9698 772.301 24.9698H769.746V28.0499ZM783.929 34.21C780.604 34.21 778.259 31.76 778.259 28.3124C778.259 24.8648 780.604 22.4148 783.929 22.4148C787.254 22.4148 789.599 24.8648 789.599 28.3124C789.599 31.76 787.254 34.21 783.929 34.21ZM783.929 31.69C785.644 31.69 786.869 30.2724 786.869 28.2774C786.869 26.2824 785.644 24.8648 783.929 24.8648C782.214 24.8648 780.989 26.2824 780.989 28.2774C780.989 30.2724 782.214 31.69 783.929 31.69ZM791.841 34V22.6248H799.716V25.0048H794.431V27.7349H798.946V29.6249H794.431V34H791.841ZM801.671 34V22.6248H804.261V34H801.671ZM811.402 34.21C808.567 34.21 806.432 32.6875 806.362 30.6224L809.372 29.9924C809.442 31.0949 810.23 31.9 811.542 31.9C812.4 31.9 813.222 31.55 813.222 30.7799C813.222 28.6099 806.852 29.0299 806.852 25.5298C806.852 23.7098 808.532 22.4148 811.052 22.4148C813.625 22.4148 815.532 23.7098 815.742 25.5298L812.837 26.2299C812.767 25.3023 811.997 24.6548 810.982 24.6548C810.125 24.6548 809.512 25.1273 809.512 25.7749C809.512 27.8399 816.022 27.2099 816.022 30.8499C816.022 32.8275 814.115 34.21 811.402 34.21ZM822.702 34.21C819.867 34.21 817.732 32.6875 817.662 30.6224L820.672 29.9924C820.742 31.0949 821.53 31.9 822.842 31.9C823.7 31.9 824.522 31.55 824.522 30.7799C824.522 28.6099 818.152 29.0299 818.152 25.5298C818.152 23.7098 819.832 22.4148 822.352 22.4148C824.925 22.4148 826.832 23.7098 827.042 25.5298L824.137 26.2299C824.067 25.3023 823.297 24.6548 822.282 24.6548C821.425 24.6548 820.812 25.1273 820.812 25.7749C820.812 27.8399 827.322 27.2099 827.322 30.8499C827.322 32.8275 825.415 34.21 822.702 34.21ZM829.487 34V22.6248H832.077V34H829.487ZM839.988 34.21C836.663 34.21 834.318 31.76 834.318 28.3124C834.318 24.8648 836.663 22.4148 839.988 22.4148C843.313 22.4148 845.658 24.8648 845.658 28.3124C845.658 31.76 843.313 34.21 839.988 34.21ZM839.988 31.69C841.703 31.69 842.928 30.2724 842.928 28.2774C842.928 26.2824 841.703 24.8648 839.988 24.8648C838.273 24.8648 837.048 26.2824 837.048 28.2774C837.048 30.2724 838.273 31.69 839.988 31.69ZM847.9 34V22.6248H850.84L854.9 30.3249V22.6248H857.49V34H854.62L850.49 26.3699V34H847.9ZM859.318 34L863.343 22.6248H866.493L870.518 34H867.718L866.878 31.41H862.958L862.153 34H859.318ZM863.536 29.5899H866.283L864.883 25.2498L863.536 29.5899ZM872.346 34V22.6248H874.936V31.515H880.186V34H872.346ZM886.418 34V22.6248H894.573V24.9698H889.008V27.2799H893.558V29.0999H889.008V31.62H894.748V34H886.418ZM906.227 34.21C903.182 34.21 900.977 31.7425 900.977 28.3299C900.977 24.8298 903.357 22.4148 906.577 22.4148C909.027 22.4148 911.057 23.9023 911.477 26.0199L908.922 26.9299C908.712 25.7049 907.767 24.8298 906.507 24.8298C904.862 24.8298 903.707 26.2474 903.707 28.2599C903.707 30.2724 904.932 31.76 906.612 31.76C907.942 31.76 908.974 30.8324 909.097 29.5199H905.352V27.6999H911.547L912.107 34H910.497L909.972 31.7775C909.552 33.23 908.082 34.21 906.227 34.21ZM914.49 34V22.6248H922.645V24.9698H917.08V27.2799H921.63V29.0999H917.08V31.62H922.82V34H914.49ZM925.055 34V22.6248H930.796C932.878 22.6248 934.366 24.1298 934.366 26.2649C934.366 27.7349 933.596 28.9074 932.353 29.4849L934.576 34H931.496L929.991 29.8699H927.645V34H925.055ZM927.645 28.0499H930.131C931.006 28.0499 931.636 27.4199 931.636 26.5099C931.636 25.5998 931.041 24.9698 930.201 24.9698H927.645V28.0499ZM936.783 34V22.6248H944.938V24.9698H939.373V27.2799H943.923V29.0999H939.373V31.62H945.113V34H936.783ZM947.348 34V22.6248H950.288L954.348 30.3249V22.6248H956.938V34H954.068L949.938 26.3699V34H947.348ZM964.716 34.21C961.478 34.21 959.186 31.76 959.186 28.3124C959.186 24.8648 961.496 22.4148 964.716 22.4148C967.446 22.4148 969.441 24.2698 969.651 26.5099L967.131 27.1399C966.921 25.7399 966.011 24.8648 964.751 24.8648C963.123 24.8648 961.986 26.2999 961.986 28.3124C961.986 30.3074 963.106 31.69 964.751 31.69C966.081 31.69 967.096 30.7799 967.236 29.4499L969.791 30.5699C969.301 32.74 967.236 34.21 964.716 34.21ZM972.033 34V22.6248H974.623V34H972.033ZM976.444 34L980.469 22.6248H983.619L987.644 34H984.844L984.004 31.41H980.084L979.279 34H976.444ZM980.661 29.5899H983.409L982.009 25.2498L980.661 29.5899ZM989.472 34V22.6248H992.062V31.515H997.312V34H989.472ZM1003.54 34V22.6248H1006.13V31.515H1011.38V34H1003.54ZM1014.53 34V25.0748H1010.93V22.6248H1020.73V25.0748H1017.12V34H1014.53ZM1022.52 34V22.6248H1026.86C1030.17 22.6248 1032.53 24.9873 1032.53 28.3124C1032.53 31.6025 1030.22 34 1027.07 34H1022.52ZM1025.11 31.62H1026.93C1028.59 31.62 1029.8 30.2199 1029.8 28.2949C1029.8 26.3524 1028.54 24.9698 1026.79 24.9698H1025.11V31.62ZM1033.41 34L1037.43 22.6248H1040.58L1044.61 34H1041.81L1040.97 31.41H1037.05L1036.24 34H1033.41ZM1037.63 29.5899H1040.37L1038.97 25.2498L1037.63 29.5899ZM1047.63 34.14C1046.75 34.14 1046.12 33.4925 1046.12 32.6C1046.12 31.7075 1046.75 31.0599 1047.63 31.0599C1048.5 31.0599 1049.13 31.7075 1049.13 32.6C1049.13 33.4925 1048.5 34.14 1047.63 34.14Z" fill="#3E5684"/>
<path d="M1348.65 958.646H1334.18V962.098H1339.76V977.017H1343.08V962.098H1348.65V958.646Z" fill="#3E5684"/>
<path d="M1377.19 958.646H1362.72V962.098H1368.29V977.017H1371.61V962.098H1377.19V958.646Z" fill="#3E5684"/>
<path d="M1356.49 962.073H1361.65V958.651H1355.91C1354.74 958.723 1353.63 959.007 1352.62 959.467C1349.43 960.92 1347.21 964.116 1347.21 967.825C1347.21 972.901 1351.37 977.017 1356.49 977.017C1357.14 977.017 1357.78 976.95 1358.39 976.824V977.017H1361.65V967.623H1355.54V971.02H1358.39V973.233C1357.79 973.437 1357.15 973.549 1356.49 973.549C1353.3 973.549 1350.71 970.986 1350.71 967.825C1350.71 964.665 1353.3 962.073 1356.49 962.073Z" fill="#3E5684"/>
<path d="M1354.08 925.949V937.923C1354.08 939 1354.92 939.872 1355.95 939.872H1355.96C1356.99 939.872 1357.83 939 1357.83 937.923V925.949C1357.83 924.872 1356.99 924 1355.96 924H1355.95C1354.92 924 1354.08 924.872 1354.08 925.949Z" fill="#11ADAE"/>
<path d="M1383 936.412L1374.86 944.879C1374.13 945.64 1374.13 946.875 1374.86 947.636L1374.87 947.637C1375.6 948.398 1376.78 948.398 1377.52 947.637L1385.66 939.17C1386.39 938.408 1386.39 937.174 1385.66 936.413L1385.65 936.412C1384.92 935.651 1383.74 935.651 1383 936.412Z" fill="#11ADAE"/>
<path d="M1326.25 939.17L1334.39 947.638C1335.13 948.399 1336.31 948.399 1337.04 947.638L1337.05 947.637C1337.78 946.875 1337.78 945.641 1337.05 944.88L1328.91 936.413C1328.17 935.652 1326.99 935.652 1326.26 936.413L1326.25 936.414C1325.52 937.175 1325.52 938.409 1326.25 939.17Z" fill="#11ADAE"/>
<path d="M1357.83 1008.26V996.283C1357.83 995.207 1356.99 994.334 1355.96 994.334H1355.95C1354.92 994.334 1354.08 995.207 1354.08 996.283V1008.26C1354.08 1009.33 1354.92 1010.21 1355.95 1010.21H1355.96C1356.99 1010.21 1357.83 1009.33 1357.83 1008.26Z" fill="#11ADAE"/>
<path d="M1385.65 995.036L1377.51 986.569C1376.78 985.808 1375.6 985.808 1374.86 986.569L1374.86 986.57C1374.13 987.331 1374.13 988.565 1374.86 989.327L1383 997.794C1383.74 998.555 1384.92 998.555 1385.65 997.794L1385.65 997.793C1386.39 997.032 1386.39 995.798 1385.65 995.036Z" fill="#11ADAE"/>
<path d="M1328.9 997.793L1337.04 989.326C1337.78 988.564 1337.78 987.33 1337.04 986.569L1337.04 986.568C1336.31 985.807 1335.12 985.807 1334.39 986.568L1326.25 995.035C1325.52 995.796 1325.52 997.031 1326.25 997.792L1326.25 997.793C1326.99 998.554 1328.17 998.554 1328.9 997.793Z" fill="#11ADAE"/>
</g>
<defs>
<clipPath id="clip0_308_118">
<rect width="1440" height="1024" fill="white"/>
</clipPath>
</defs>
</svg>
